<svg id="Layer_1" enable-background="new 0 0 511.008 511.008" height="512" viewBox="0 0 511.008 511.008" width="512" xmlns="http://www.w3.org/2000/svg"><path d="m354.147 472.925c1.278 0 3.251-53.714 48.492-109.643 5.85-7.232 13.031-12.616 21.939-16.203 19.349-7.792 32.18-26.665 31.849-47.939-.165-10.606 2.75-21.027 8.796-29.743 12.409-17.889 12.138-42.171-1.563-59.929-6.202-8.039-7.564-18.799-3.945-28.285 9.121-23.909-.964-50.527-22.953-62.632-5.98-3.292-9.839-9.905-8.652-17.799 4.169-27.738-14.939-53.604-42.677-57.773-27.738-4.168-53.604 14.939-57.773 42.677-.06.398-144.443.253-144.275.253-4.045-27.866-29.981-47.112-57.81-42.93-27.844 4.184-46.961 30.216-42.639 58.025 1.108 7.126-2.373 14.068-8.691 17.546-22.055 12.141-32.051 38.785-22.953 62.632 3.619 9.486 2.257 20.247-3.945 28.285-13.678 17.728-13.992 42.011-1.563 59.929 10.859 15.655 7.919 28.532 9.358 38.109 2.773 18.451 15.148 33.073 31.287 39.572 8.45 3.403 15.947 8.764 21.661 15.858 26.861 33.353 42.904 70.95 48.771 109.987 11.616.003 185.65.003 197.286.003z" fill="#9bd65e"/><path d="m405.071 166.434c-10.546-10.113-14.785-25.135-11.663-39.408 6.993-31.976-8.051-64.493-36.7-79.976-15.322 7.047-26.493 21.314-29.085 38.861-151.127 0-144.216.14-144.275-.253-2.476-16.472-12.603-29.9-26.229-37.218-27.351 16.18-40.96 47.863-34.241 78.586 3.122 14.274-1.118 29.295-11.663 39.408-23.261 22.308-28.893 56.797-15.041 84.949 6.74 13.696 8.66 29.149 6.156 44.207-5.02 30.205 9.204 59.803 35.067 75.028 11.041 6.5 20.564 15.36 26.995 26.441 14.156 24.392 24.853 48.082 33.03 75.866h121.409c7.631-25.962 18.468-51.007 32.296-74.554 6.578-11.187 15.474-20.521 27.756-27.75 25.869-15.227 40.092-44.828 35.072-75.031-2.503-15.058-.583-30.511 6.156-44.207 13.83-28.105 8.263-62.601-15.04-84.949z" fill="#91c656"/><path d="m294.869 495.008c1.142 0-4.933-60.382 35.283-128.864 5.249-8.939 12.272-16.062 21.495-21.49 20.033-11.792 31.049-34.716 27.161-58.106-1.939-11.661-.452-23.628 4.768-34.235 10.712-21.769 6.392-48.486-11.648-65.787-8.167-7.832-11.45-19.465-9.032-30.519 6.093-27.86-9.43-55.524-35.668-65.223-7.135-2.638-12.483-9.286-12.483-18.183 0-31.26-25.341-56.601-56.601-56.601s-56.601 25.341-56.601 56.601c0 8.845-5.3 15.527-12.483 18.183-26.317 9.728-41.745 37.435-35.668 65.223 2.417 11.054-.866 22.687-9.032 30.519-18.011 17.272-22.378 43.981-11.648 65.787 5.22 10.607 6.706 22.574 4.768 34.235-3.888 23.391 7.128 46.313 27.157 58.104 9.917 5.838 16.378 12.759 21.412 21.345 22.96 39.165 35.37 83.613 35.37 129.012" fill="#9bd65e"/><path d="m351.647 344.654c16.71-9.835 27.927-28 27.927-48.793 0-10.822-5.381-24.48 4.002-43.548 10.713-21.768 6.393-48.485-11.648-65.787-8.167-7.832-11.45-19.465-9.032-30.519 6.092-27.86-9.43-55.524-35.668-65.223-7.539-2.787-12.524-9.86-12.484-17.898.16-31.314-25.177-56.886-56.601-56.886-31.44 0-56.761 25.587-56.6 56.886.04 8.037-4.945 15.111-12.484 17.898-26.317 9.728-41.745 37.435-35.668 65.223 2.417 11.054-.865 22.687-9.032 30.519-18.011 17.272-22.378 43.982-11.648 65.787 5.103 10.37 6.628 22.038 4.883 33.451 50.148 89.637 62.937-33.912 181.533 101.302 9.734-20.697 16.805-33.162 32.52-42.412z" fill="#aced70"/><path d="m389.356 227.38c0-16.058-6.687-30.554-17.429-40.855-8.167-7.832-11.45-19.465-9.032-30.519 6.092-27.86-9.43-55.524-35.668-65.223-7.135-2.638-12.483-9.286-12.483-18.183 0-31.26-25.341-56.601-56.601-56.601s-56.601 25.341-56.601 56.601c0 8.845-5.3 15.527-12.483 18.183-14.217 5.255-25.743 16.055-31.958 29.775 146.223 270.196 78.039-18.349 220.929 154.317.684-21.383 11.326-25.285 11.326-47.495z" fill="#c0f28b"/><path d="m476.328 199.695c-2.704-3.504-3.342-8.412-1.664-12.809 12.014-31.497-1.51-66.565-30.186-82.352-.263-.145-.689-.477-.597-1.073h-.001c5.687-36.427-19.46-70.802-56.07-76.304-23.613-3.549-46.237 5.799-60.724 22.735-9.557-28.94-36.841-49.892-68.943-49.892-33.899 0-62.439 23.357-70.39 54.821-14.107-20.01-38.733-31.543-64.555-27.663-36.418 5.474-61.595 39.555-56.122 75.973.077.503.189 1-.547 1.405-28.718 15.81-42.18 50.901-30.185 82.352 1.678 4.396 1.04 9.304-1.664 12.808-11.225 14.547-15.902 32.563-13.172 50.728 4.032 26.833 17.396 27.744 17.074 48.474-.425 27.938 16.632 52.861 41.871 63.024 6.494 2.615 11.471 6.465 15.477 11.424 23.934 29.588 39.532 64.844 45.109 101.958 1.192 7.933 8.017 13.625 15.803 13.625 9.747 0 17.304-8.652 15.842-18.379-6.23-41.457-23.494-82.278-52.132-117.646-7.275-9.034-17.008-16.18-28.146-20.665-11.402-4.592-19.618-14.979-21.441-27.107-1.05-7.006 1.776-24.942-12.033-44.851-8.174-11.787-8.658-28.411 1.084-41.037 9.461-12.262 11.847-29.031 6.227-43.762-6.23-16.339.706-34.648 15.719-42.913 12.162-6.694 18.907-20.366 16.786-34.02-2.951-19.18 10.286-36.903 29.206-39.747 17.764-2.672 34.479 8.675 38.87 25.793-23.303 16.533-35.421 45.761-29.063 74.831 1.255 5.741-.46 11.7-4.477 15.552-23.74 22.766-28.36 57.109-14.929 84.399 7.081 14.392 2.357 24.105 2.357 36.483 0 25.598 13.72 49.577 35.806 62.578 6.6 3.886 11.851 8.976 15.177 14.708 22.759 38.99 33.722 80.247 33.722 121.861 0 8.836 7.163 16 16 16s16-7.164 16-16c0-47.139-12.412-94-38.038-137.911-6.089-10.491-15.296-19.563-26.626-26.233-12.361-7.277-20.04-20.689-20.04-35.002 0-8.179 6.01-26.928-5.646-50.613-7.391-15.019-5.065-34.292 8.366-47.174 12.002-11.509 17.208-28.938 13.589-45.485-4.333-19.8 6.709-39.82 25.585-46.797 13.794-5.099 23.011-18.355 22.937-32.906 0-23.174 18.603-40.886 40.601-40.886 21.877 0 40.601 17.625 40.601 40.804-.074 14.632 9.143 27.889 22.937 32.987 18.87 6.975 29.921 26.988 25.585 46.796-3.619 16.548 1.587 33.977 13.589 45.486 13.439 12.889 15.752 32.165 8.366 47.174-11.609 23.588-5.646 42.524-5.646 50.613 0 14.314-7.68 27.728-20.041 35.003-11.263 6.628-20.58 15.89-26.934 26.763-25.337 43.246-37.729 90.403-37.729 137.381 0 8.836 7.163 16 16 16s16-7.164 16-16c0-41.496 10.934-82.878 33.347-121.218 3.611-6.18 8.987-11.487 15.548-15.348 22.088-13.001 35.81-36.981 35.81-62.582 0-12.382-4.727-22.084 2.357-36.484 13.428-27.281 8.818-61.627-14.929-84.399-4.017-3.852-5.731-9.812-4.476-15.553 6.736-30.82-7.301-61.893-33.468-77.722 5.407-15.455 21.212-25.423 37.996-22.9 18.994 2.855 32.142 20.665 29.206 39.747-2.121 13.653 4.624 27.325 16.785 34.019 15.031 8.275 21.943 26.594 15.72 42.913-5.62 14.731-3.234 31.5 6.227 43.762 9.739 12.622 9.26 29.247 1.085 41.036-13.767 19.847-11.007 38.006-12.034 44.85-1.823 12.13-10.039 22.517-21.441 27.109-11.138 4.485-20.87 11.63-28.147 20.667-28.484 35.305-45.835 75.752-52.13 117.644-1.46 9.712 6.076 18.379 15.842 18.379 7.786 0 14.61-5.692 15.803-13.625 5.577-37.113 21.176-72.37 45.112-101.96 4.129-5.127 9.215-8.901 15.474-11.421 25.139-10.123 42.297-34.977 41.871-63.029-.317-20.437 13.111-22.091 17.074-48.468 2.726-18.166-1.952-36.181-13.177-50.729z"/><path d="m274.143 194.209c14.171-13.275 28.888-29.164 37.006-50.15 3.188-8.241-.909-17.507-9.15-20.695-8.24-3.189-17.507.908-20.695 9.15-1.866 4.824-4.318 9.35-7.16 13.651v-50.504c0-8.836-7.163-16-16-16s-16 7.164-16 16v173.797c-22.092-11.026-36.901-22.698-45.846-35.988-4.935-7.33-14.877-9.273-22.208-4.338-7.33 4.934-9.272 14.877-4.339 22.208 14.082 20.921 37.234 38.033 72.393 53.406v111.654c0 8.836 7.163 16 16 16s16-7.164 16-16c-.001-43.547-.001-138.345-.001-222.191z"/></svg>